<?xml version="1.0" encoding="utf-8"?>
<!-- Generator: Adobe Illustrator 24.0.0, SVG Export Plug-In . SVG Version: 6.00 Build 0)  -->
<svg version="1.1" id="Calque_1" xmlns="http://www.w3.org/2000/svg" xmlns:xlink="http://www.w3.org/1999/xlink" x="0px" y="0px"
	 viewBox="0 0 556.24 570.35" style="enable-background:new 0 0 556.24 570.35;" xml:space="preserve">
<style type="text/css">
	.st0{fill:#33BBE5;}
	.st1{fill:url(#SVGID_1_);}
	.st2{fill:#FFFFFF;}
</style>
<g>
	<path d="M496.18,548.77H60.05c-25.15,0-45.53-20.38-45.53-45.53V67.11c0-25.15,20.38-45.53,45.53-45.53h436.13
		c25.15,0,45.53,20.38,45.53,45.53v436.13C541.71,528.39,521.33,548.77,496.18,548.77z"/>
	<g>
		<polygon class="st0" points="289.79,253.36 278.12,259.31 278.12,354.75 278.11,354.76 258.57,364.71 249.77,369.19 
			249.77,273.75 227.35,285.17 221.42,288.2 215.68,291.12 196.13,301.08 193.08,302.64 193.08,270.82 196.13,269.27 208.86,262.78 
			221.42,256.38 227.35,253.36 249.77,241.93 258.56,237.45 258.57,237.45 260.06,238.22 260.23,238.3 264.05,240.25 264.35,240.4 
			265.11,240.79 267.87,242.19 269.4,242.97 271.68,244.14 272.92,244.77 273.68,245.15 275.5,246.08 277.2,246.95 277.97,247.34 
			278.11,247.41 278.12,247.41 279.32,248.03 281.49,249.13 283.14,249.97 285.77,251.32 286.54,251.7 		"/>
		<g>
			<linearGradient id="SVGID_1_" gradientUnits="userSpaceOnUse" x1="136.3827" y1="285.1765" x2="419.8526" y2="285.1765">
				<stop  offset="0" style="stop-color:#33BBE5"/>
				<stop  offset="1" style="stop-color:#F6F6F6"/>
			</linearGradient>
			<path class="st1" d="M414.67,126.1l-9.94-5.06l-13.23-6.74l-8.05-4.1l-20.3,10.34v0.5h-0.98l-9.94,5.06h-0.01l-17.41,8.88
				l-13.8,7.03H321l-14.47,7.38l-0.07,0.03l-16.63,8.48l-0.04,0.02l-11.67,5.94l-0.01,0.01l-19.54,9.95l-7.68,3.92l-1.12,0.57
				l-22.42,11.42l-5.93,3.03l-25.28,12.88l-0.87,0.44l-2.19,1.11l-28.16,14.36l-0.19,0.09l-25.1,12.79l-3.25,1.66v193.62l6.17,3.14
				l22.18,11.3l0.18,0.09l28.17,14.36l3.06,1.55l25.28-12.88l5.93-3.02h0.01l22.36-11.4l0.05-0.02l8.8-4.49l19.55-9.96l11.67-5.95
				l15.55-7.92l1.12-0.57l14.56-7.42l13.79-7.02l17.42-8.88h0.01l8.74-4.46l2.17-1.1l20.3-10.35l8.05-4.1l23.17-11.81l1.93-0.98
				l3.25-1.65V128.74L414.67,126.1z M391.5,328.79l-8.05,4.1l-20.3,10.35l-8.99,4.58l-1.93,0.98l-17.42,8.88l-13.8,7.03l-14.55,7.41
				l-7.92,4.04l-8.75,4.46l-11.67,5.94l-19.55,9.96l-8.8,4.49l-6.87,3.5l-15.55,7.92l-5.93,3.02l-25.29,12.89l-3.05-1.56
				l-28.17-14.35l-0.18,0.09V253.27l0.19,0.09l28.16-14.35l3.06-1.56l5.93-3.02l19.35-9.86l5.94-3.02h0.01l12.9-6.57l9.5-4.85
				l7.94-4.05l0.86-0.44l19.54-9.95l0.01-0.01l11.67-5.95h0.01l0.03-0.02l16.63-8.47l6.87-3.5l7.69-3.91l13.79-7.03l17.42-8.88
				l10.92-5.56l5.82-2.97l14.48-7.38l8.05,4.1V328.79z"/>
			<polygon class="st2" points="363.15,184.16 363.15,311.42 352.23,316.99 352.22,316.99 347.35,319.47 334.81,325.86 
				321.01,332.89 306.46,340.31 291.71,347.82 289.83,348.78 289.83,316.97 306.46,308.49 321.01,301.08 334.81,294.05 
				334.81,230.42 326.94,234.43 321,237.45 306.46,244.86 306.45,244.86 302.69,246.78 300.45,245.64 299.94,245.38 299.69,245.25 
				296.17,243.46 296.12,243.43 295.4,243.07 292.3,241.49 291.88,241.27 291.12,240.89 289.83,240.23 288.48,239.54 287.6,239.09 
				286.83,238.7 284.67,237.6 283.31,236.91 282.55,236.52 280.85,235.65 279.03,234.72 278.27,234.34 278.12,234.26 278.11,234.26 
				277.03,233.71 274.74,232.54 273.98,232.15 273.21,231.76 271.47,230.87 275.23,228.96 278.11,227.5 278.12,227.49 
				289.78,221.55 289.79,221.55 289.83,221.53 306.46,213.05 320.13,206.08 321,205.64 321.01,205.64 334.81,198.6 352.23,189.73 
							"/>
		</g>
	</g>
</g>
</svg>
